<svg xmlns="http://www.w3.org/2000/svg" xmlns:xlink="http://www.w3.org/1999/xlink" xmlns:inkscape="http://www.inkscape.org/namespaces/inkscape" version="1.1" width="256.187" height="223.336" viewBox="0 0 256.187 223.336">
<defs>
<path id="font_1_7" d="M.35499574 .36123658C.43299867 .3992157 .48298646 .44618226 .48298646 .5151367 .48298646 .6120758 .38198854 .6640625 .2849884 .6640625 .1749878 .6640625 .084991458 .5920868 .084991458 .4971466 .084991458 .45018006 .10699463 .41619874 .125 .39620973 .14299011 .37522889 .1499939 .37123109 .20899964 .33624269 .15299988 .31227113 .053985597 .25830079 .053985597 .15336609 .053985597 .042434694 .16899109-.01953125 .2829895-.01953125 .4099884-.01953125 .5139923 .061431886 .5139923 .1693573 .5139923 .23532105 .47499085 .29127503 .4169922 .32525636 .4039917 .33325196 .36898805 .35324098 .35499574 .36123658M.19198609 .45617677C.1659851 .4711609 .13798523 .49813844 .13798523 .53512576 .13798523 .5980835 .21099854 .63505557 .2829895 .63505557 .36099244 .63505557 .42999269 .5860901 .42999269 .5151367 .42999269 .42619325 .32598878 .3812256 .32398988 .3812256 .32199098 .3812256 .31999208 .3822174 .31298829 .3862152L.19198609 .45617677M.24099732 .31726075 .37799073 .23831177C.4039917 .22332764 .45399476 .19334412 .45399476 .13438416 .45399476 .059432985 .37098695 .012466431 .2849884 .012466431 .19299317 .012466431 .11399841 .07142639 .11399841 .15336609 .11399841 .22732544 .16899109 .2842865 .24099732 .31726075Z"/>
<path id="font_1_2" d="M.5049896 .18203736H.47099305C.46798707 .16001892 .45799256 .100997928 .44499208 .09098816 .43699647 .084991458 .3600006 .084991458 .34599305 .084991458H.1619873C.2669983 .17803955 .3019867 .20603943 .3619995 .25306703 .43598939 .312088 .5049896 .374115 .5049896 .46914674 .5049896 .5900879 .39898683 .6640625 .2709961 .6640625 .14698792 .6640625 .06298828 .57710269 .06298828 .4851532 .06298828 .43414308 .10598755 .42915345 .115997318 .42915345 .13999939 .42915345 .16899109 .44615174 .16899109 .48214723 .16899109 .5001526 .1619873 .53515627 .10998535 .53515627 .14099121 .6060791 .20899964 .62805178 .2559967 .62805178 .35598756 .62805178 .4079895 .5501404 .4079895 .46914674 .4079895 .38212586 .34599305 .3130951 .31399537 .27708436L.07299805 .038986207C.06298828 .02999878 .06298828 .027999878 .06298828 0H.47499085L.5049896 .18203736Z"/>
<path id="font_1_6" d="M.5349884 .6045227C.54499819 .6165161 .54499819 .6185303 .54499819 .64453127H.2829895C.24299622 .64453127 .23199463 .6455078 .19599915 .6484375 .14399719 .65234377 .14199829 .6592407 .13899231 .676239H.10499573L.069992069 .46250917H.10398865C.10598755 .47750855 .115997318 .54351809 .13198853 .5535126 .13999939 .55952456 .22099304 .55952456 .23599243 .55952456H.45399476C.42199708 .5175171 .37098695 .45550538 .34999085 .4275055 .21899414 .25549317 .20698548 .096466068 .20698548 .037460329 .20698548 .02645874 .20698548-.01953125 .2539978-.01953125 .3019867-.01953125 .3019867 .025466919 .3019867 .038467409V.07847595C.3019867 .27249146 .34199525 .36149598 .3849945 .41551209L.5349884 .6045227Z"/>
<path id="font_1_1" d="M.33499146 .63612368C.33499146 .6630554 .33299256 .6640625 .30499269 .6640625 .24099732 .6014404 .1499939 .6004486 .10899353 .6004486V.5644531C.1329956 .5644531 .19898987 .5644531 .2539978 .592453V.08203125C.2539978 .04899597 .2539978 .035995485 .1539917 .035995485H.115997318V0C.13398743 .0009918213 .25698854 .0039978029 .2939911 .0039978029 .32499696 .0039978029 .45098878 .0009918213 .47299195 0V.035995485H.43499757C.33499146 .035995485 .33499146 .04899597 .33499146 .08203125V.63612368Z"/>
<path id="font_1_4" d="M.15499878 .5588074C.20599365 .5458069 .23599243 .5458069 .2519989 .5458069 .38398744 .5458069 .46199037 .6358032 .46199037 .6508026 .46199037 .6618042 .45498658 .6648102 .44999696 .6648102 .44799806 .6648102 .44599916 .6648102 .44198609 .6618042 .41799928 .6528015 .36499024 .6328125 .29100038 .6328125 .2630005 .6328125 .20999146 .6348114 .14498902 .6598053 .1349945 .6648102 .1329956 .6648102 .13198853 .6648102 .11898804 .6648102 .11898804 .6538086 .11898804 .6378021V.34251405C.11898804 .32548524 .11898804 .3134613 .1349945 .3134613 .14399719 .3134613 .14498902 .3154602 .15499878 .32748414 .19799805 .38259889 .25898744 .390625 .2939911 .390625 .35398866 .390625 .3809967 .34251405 .38598634 .33450318 .4039917 .30143739 .4099884 .26335145 .4099884 .20524597 .4099884 .17524719 .4099884 .116256717 .37998963 .07234192 .35499574 .03640747 .31199647 .012466431 .2630005 .012466431 .19799805 .012466431 .1309967 .04838562 .10598755 .11425781 .14399719 .11125183 .16299439 .13624573 .16299439 .16325379 .16299439 .20625305 .12599182 .21424866 .11299133 .21424866 .11099243 .21424866 .06298828 .21424866 .06298828 .1602478 .06298828 .07034302 .14498902-.01953125 .2649994-.01953125 .3929901-.01953125 .5049896 .07533264 .5049896 .20124817 .5049896 .31445313 .4189911 .41862489 .29499818 .41862489 .25099183 .41862489 .19898987 .4076233 .15499878 .36956788V.5588074Z"/>
<path id="font_1_3" d="M.5289917 .1640625V.20005799H.41799928V.64582827C.41799928 .66682437 .41799928 .6738281 .3959961 .6738281 .38398744 .6738281 .37998963 .6738281 .36999513 .65982058L.038986207 .20005799V.1640625H.33299256V.08201599C.33299256 .04800415 .33299256 .035995485 .2519989 .035995485H.22499085V0C.2749939 .0019989014 .33898927 .0039978029 .375 .0039978029 .4119873 .0039978029 .47599793 .0019989014 .526001 0V.035995485H.49899293C.41799928 .035995485 .41799928 .04800415 .41799928 .08201599V.1640625H.5289917M.33999635 .5658722V.20005799H.07598877L.33999635 .5658722Z"/>
<path id="font_1_5" d="M.1499939 .3274536C.1499939 .40945436 .15699768 .48303224 .19499207 .543869 .22898865 .5978699 .2829895 .63505557 .34700013 .63505557 .3769989 .63505557 .4169922 .62701418 .43699647 .5998688 .4119873 .5978699 .3909912 .5808716 .3909912 .5518799 .3909912 .5268707 .4079895 .5048828 .43798829 .5048828 .46798707 .5048828 .48599244 .5248718 .48599244 .5538788 .48599244 .6119385 .44400025 .6640625 .34498597 .6640625 .20098877 .6640625 .053985597 .5318756 .053985597 .3174591 .053985597 .05845642 .17599488-.01953125 .28599549-.01953125 .4079895-.01953125 .5139923 .07345581 .5139923 .20445252 .5139923 .33145143 .41299439 .42546083 .29599 .42546083 .21598816 .42546083 .17199707 .37245179 .1499939 .3274536M.28599549 .012466431C.23599243 .012466431 .19699097 .04145813 .17599488 .08546448 .16099549 .11546326 .15299988 .16545105 .15299988 .22544861 .15299988 .32244874 .21099854 .39746095 .29100038 .39746095 .33699037 .39746095 .36799623 .37945558 .3929901 .342453 .4169922 .30445863 .41799928 .26245118 .41799928 .20445252 .41799928 .14746094 .41799928 .10545349 .3909912 .066467288 .36698915 .031463624 .33499146 .012466431 .28599549 .012466431Z"/>
<path id="font_2_1" d="M.4889984 .31877137C.4889984 .42585755 .47799684 .49090577 .44499208 .55496218 .40098573 .6430359 .31999208 .66503909 .2649994 .66503909 .13899231 .66503909 .09298706 .5709839 .07899475 .5429535 .042999269 .4698944 .040985109 .3708191 .040985109 .31877137 .040985109 .25271607 .04399109 .15162659 .09199524 .07156372 .13798523-.0024871827 .21199036-.021484375 .2649994-.021484375 .31298829-.021484375 .39898683-.0064849855 .44898988 .09257507 .48599244 .16464234 .4889984 .2537079 .4889984 .31877137M.2649994 .006515503C.23098755 .006515503 .1619873 .022521973 .14099121 .12760926 .12998963 .18466187 .12998963 .2787323 .12998963 .33078004 .12998963 .3998413 .12998963 .4698944 .14099121 .5249481 .1619873 .6270294 .23999024 .6370239 .2649994 .6370239 .29899598 .6370239 .36799623 .62002566 .3880005 .5289459 .3999939 .4738922 .3999939 .39883424 .3999939 .33078004 .3999939 .27172853 .3999939 .18165589 .3880005 .12561035 .36698915 .020523072 .2979889 .006515503 .2649994 .006515503Z"/>
<path id="font_2_2" d="M.31399537 .63708499C.31399537 .664032 .31199647 .66503909 .2849884 .66503909 .24398804 .6251831 .19099427 .6013489 .09599304 .6013489V.5683594C.12298584 .5683594 .1769867 .5683594 .23498535 .5953522V.08203125C.23498535 .04499817 .23199463 .032989503 .13699341 .032989503H.101989749V0C.14299011 .0029907227 .22898865 .0029907227 .27398683 .0029907227 .31900025 .0029907227 .4059906 .0029907227 .44699098 0V.032989503H.4119873C.31698609 .032989503 .31399537 .04499817 .31399537 .08203125V.63708499Z"/>
<path id="font_2_3" d="M.28199769 .20405579C.2979889 .21907044 .33999635 .2520752 .35598756 .26608277 .41799928 .32312013 .47698976 .3781433 .47698976 .46917726 .47698976 .588089 .3769989 .66503909 .2519989 .66503909 .13198853 .66503909 .052993776 .57411196 .052993776 .48516847 .052993776 .4361725 .09199524 .4291687 .10598755 .4291687 .1269989 .4291687 .1579895 .4441681 .1579895 .48217774 .1579895 .5341797 .10798645 .5341797 .09599304 .5341797 .125 .6070709 .19198609 .6320343 .24099732 .6320343 .33399964 .6320343 .38198854 .55314639 .38198854 .46917726 .38198854 .36514283 .30899049 .28910829 .19099427 .16804505L.06498718 .037994386C.052993776 .026992798 .052993776 .024993897 .052993776 0H.44799806L.47698976 .17904663H.44599916C.44299317 .1590271 .43499757 .10900879 .4229889 .08999634 .4169922 .08198547 .34098817 .08198547 .32499696 .08198547H.14698792L.28199769 .20405579Z"/>
<path id="font_2_4" d="M.25299073 .33370973C.33198548 .33370973 .38198854 .27557374 .38198854 .17037964 .38198854 .045440675 .31098939 .008514404 .2579956 .008514404 .20298767 .008514404 .12799073 .0284729 .09298706 .08137512 .1289978 .08137512 .1539917 .10437012 .1539917 .13737488 .1539917 .16937256 .1309967 .19238281 .09899902 .19238281 .07199097 .19238281 .04399109 .17536927 .04399109 .13537598 .04399109 .04045105 .1459961-.021484375 .2599945-.021484375 .3929901-.021484375 .48599244 .070388797 .48599244 .17037964 .48599244 .25352479 .41999818 .32969667 .31799317 .3517456 .39698792 .37982179 .45599366 .4479828 .45599366 .52804568 .45599366 .6080475 .3659973 .66503909 .2619934 .66503909 .15499878 .66503909 .07398987 .6070404 .07398987 .53105166 .07398987 .49404908 .09899902 .4780426 .125 .4780426 .1559906 .4780426 .17599488 .5000458 .17599488 .52905276 .17599488 .56604006 .14399719 .5800476 .12199402 .5810547 .1639862 .6360321 .24099732 .6390381 .25898744 .6390381 .2849884 .6390381 .36099244 .6310272 .36099244 .52804568 .36099244 .45799256 .33198548 .41589356 .31799317 .39985658 .28799439 .36878968 .2649994 .36679078 .20399475 .3627777 .18499756 .36177064 .1769867 .36076356 .1769867 .3477478 .1769867 .33370973 .18598938 .33370973 .20298767 .33370973H.25299073Z"/>
<path id="font_2_5" d="M.3939972 .6468048C.3939972 .6667938 .3939972 .6748047 .37298585 .6748047 .3600006 .6748047 .35899354 .6737976 .34899903 .65979006L.02999878 .197052V.1640625H.31199647V.08100891C.31199647 .04399109 .30899049 .032989503 .23199463 .032989503H.20899964V0C.2939911 .0029907227 .29599 .0029907227 .35299684 .0029907227 .4099884 .0029907227 .4119873 .0029907227 .49699403 0V.032989503H.47399903C.39698792 .032989503 .3939972 .04399109 .3939972 .08100891V.1640625H.5V.197052H.3939972V.6468048M.31900025 .5658417V.197052H.06498718L.31900025 .5658417Z"/>
<path id="font_2_6" d="M.13999939 .5618439C.15299988 .55784609 .19299317 .54785159 .23498535 .54785159 .3600006 .54785159 .43598939 .6358948 .43598939 .6510315 .43598939 .6620331 .42900086 .66503909 .42399598 .66503909 .42199708 .66503909 .41999818 .66503909 .41099549 .6600342 .37199403 .6450348 .32598878 .632843 .27198792 .632843 .21299744 .632843 .1639862 .6480255 .1329956 .6600342 .12298584 .66503909 .12098694 .66503909 .11999512 .66503909 .10699463 .66503909 .10699463 .6540375 .10699463 .6358948V.34292604C.10699463 .32492066 .10699463 .312912 .12298584 .312912 .1309967 .312912 .13398743 .3169098 .13899231 .32492066 .15098572 .33992005 .18899536 .39093019 .27398683 .39093019 .32998658 .39093019 .35699464 .34492494 .3659973 .32591249 .3829956 .28990174 .3849945 .24389649 .3849945 .20487976 .3849945 .1678772 .38398744 .11387634 .35598756 .069732669 .33699037 .039611818 .29699708 .008514404 .24398804 .008514404 .1789856 .008514404 .114990238 .0496521 .09199524 .11488342 .09498596 .11387634 .100997928 .11387634 .101989749 .11387634 .12998963 .11387634 .1519928 .13188172 .1519928 .16288758 .1519928 .19989014 .12298584 .21289063 .102996829 .21289063 .084991458 .21289063 .052993776 .20288086 .052993776 .15988159 .052993776 .069732669 .1309967-.021484375 .24598694-.021484375 .37098695-.021484375 .47698976 .07574463 .47698976 .19989014 .47698976 .31591798 .3929901 .4189453 .2749939 .4189453 .22499085 .4189453 .17799378 .40293885 .13999939 .368927V.5618439Z"/>
<path id="font_2_7" d="M.13798523 .33073426C.13798523 .41377259 .14498902 .4868164 .18099976 .54782107 .21099854 .5978241 .2619934 .6390381 .32499696 .6390381 .34498597 .6390381 .3909912 .63601687 .4139862 .60084536 .36898805 .5988312 .36499024 .5648346 .36499024 .553833 .36499024 .5238342 .3880005 .50683596 .4119873 .50683596 .42999269 .50683596 .45899964 .51782229 .45899964 .5558319 .45899964 .615921 .4139862 .66503909 .32398988 .66503909 .18499756 .66503909 .04399109 .53282168 .04399109 .31672669 .04399109 .045532228 .16999817-.021484375 .2669983-.021484375 .31498719-.021484375 .36698915-.0084991459 .4119873 .03453064 .45199586 .07354736 .48599244 .11558533 .48599244 .20263672 .48599244 .33372499 .3869934 .42578126 .27598573 .42578126 .20399475 .42578126 .16099549 .37976075 .13798523 .33073426M.2669983 .008514404C.21398926 .008514404 .18099976 .045532228 .1659851 .07354736 .14299011 .11859131 .14099121 .18663025 .14099121 .22465515 .14099121 .32373048 .19499207 .3977661 .27198792 .3977661 .32199098 .3977661 .35198976 .37176515 .37098695 .33673097 .3919983 .29971314 .3919983 .25468446 .3919983 .2036438 .3919983 .15260315 .3919983 .10858154 .37199403 .07255554 .34599305 .026519776 .31098939 .008514404 .2669983 .008514404Z"/>
<path id="font_2_8" d="M.5059967 .608551C.5149994 .6195526 .5149994 .6215515 .5149994 .6435547H.26098634C.23599243 .6435547 .20498657 .64456179 .17999268 .64660647 .12799073 .65068057 .1269989 .6597748 .12399292 .67578127H.09298706L.05899048 .46453858H.08999634C.09199524 .47953797 .102996829 .54855349 .116989139 .5565491 .12799073 .56155398 .20298767 .56155398 .21798706 .56155398H.42999269L.32699586 .4235382C.21299744 .27153016 .18899536 .11351013 .18899536 .03451538 .18899536 .024505616 .18899536-.021484375 .23599243-.021484375 .2829895-.021484375 .2829895 .023513794 .2829895 .035507204V.08351135C.2829895 .2275238 .30699159 .34553529 .35598756 .41053773L.5059967 .608551Z"/>
<path id="font_2_9" d="M.33198548 .36080934C.3880005 .38783265 .45599366 .4378662 .45599366 .5159302 .45599366 .6110077 .35899354 .66503909 .2659912 .66503909 .1599884 .66503909 .07398987 .59199526 .07398987 .49790956 .07398987 .46089173 .08699036 .42686463 .11199951 .39782716 .1289978 .3768158 .1329956 .3748169 .19499207 .3357849 .070999149 .2807312 .04399109 .20767212 .04399109 .15162659 .04399109 .041534425 .15499878-.021484375 .2639923-.021484375 .3869934-.021484375 .48599244 .061553956 .48599244 .16764832 .48599244 .23069763 .45199586 .2727356 .43598939 .28974916 .4189911 .30575563 .41799928 .3067627 .33198548 .36080934M.1769867 .45487977C.147995 .4718933 .12399292 .5009155 .12399292 .5359497 .12399292 .598999 .19299317 .6390381 .2639923 .6390381 .34199525 .6390381 .4059906 .5859833 .4059906 .5159302 .4059906 .45788575 .36099244 .408844 .3019867 .37982179L.1769867 .45487977M.22599793 .31776429C.22999573 .31576539 .34399415 .24571228 .36099244 .23469544 .3769989 .22569275 .42900086 .19366455 .42900086 .13360596 .42900086 .056549074 .34799195 .008514404 .2659912 .008514404 .1769867 .008514404 .100997928 .06956482 .100997928 .15162659 .100997928 .22668457 .15699768 .28573609 .22599793 .31776429Z"/>
<path id="font_2_10" d="M.3919983 .29478456C.3919983 .050704957 .27598573 .008514404 .21798706 .008514404 .19699097 .008514404 .14498902 .011520386 .117996219 .04270935 .1619873 .046707155 .16499329 .079711917 .16499329 .08970642 .16499329 .1197052 .14199829 .13671875 .117996219 .13671875 .099990848 .13671875 .070999149 .12571717 .070999149 .08770752 .070999149 .019577027 .1269989-.021484375 .21899414-.021484375 .35598756-.021484375 .48599244 .114715579 .48599244 .3287964 .48599244 .58898928 .37098695 .66503909 .2679901 .66503909 .1499939 .66503909 .04399109 .5729828 .04399109 .44187928 .04399109 .31278993 .14099121 .21875 .2539978 .21875 .32499696 .21875 .36799623 .26374818 .3919983 .31478883V.29478456M.2579956 .24674988C.21199036 .24674988 .18299866 .26776124 .16099549 .30477906 .13798523 .34181214 .13798523 .3898468 .13798523 .44088746 .13798523 .4999237 .13798523 .54196169 .16499329 .58299258 .18998719 .61901858 .22200012 .6390381 .2689972 .6390381 .33599855 .6390381 .36499024 .5729828 .36799623 .5679779 .3889923 .51893618 .3899994 .44088746 .3899994 .42086793 .3899994 .34181214 .34700013 .24674988 .2579956 .24674988Z"/>
<path id="font_3_4" d="M.041992189 .6826172V.6536102H.06199646C.13398743 .6536102 .13699341 .6436157 .13699341 .6066437V.07595825C.13699341 .038986207 .13398743 .0289917 .06199646 .0289917H.041992189V0H.3919983C.5589905 0 .69299319 .1499176 .69299319 .33480836 .69299319 .5276947 .55799868 .6826172 .3919983 .6826172H.041992189M.2619934 .0289917C.21798706 .0289917 .21598816 .035995485 .21598816 .06896973V.6136322C.21598816 .6466217 .21798706 .6536102 .2619934 .6536102H.36698915C.44999696 .6536102 .5159912 .6136322 .5569916 .5476837 .60198977 .4767151 .60198977 .3757782 .60198977 .33580018 .60198977 .2798462 .6009979 .18589783 .5439911 .11193848 .5109863 .06996155 .45098878 .0289917 .36698915 .0289917H.2619934Z"/>
<path id="font_3_2" d="M.18399048 .35888673C.16699219 .35787965 .16299439 .35688783 .16299439 .34788514 .16299439 .33789063 .16799927 .33789063 .18598938 .33789063H.23199463C.31698609 .33789063 .35499574 .267807 .35499574 .17172241 .35499574 .04058838 .2869873 .005508423 .23799134 .005508423 .18998719 .005508423 .10798645 .028564454 .07899475 .09472656 .11099243 .08970642 .13999939 .10771179 .13999939 .14372254 .13999939 .17271424 .11898804 .1927185 .09098816 .1927185 .066986087 .1927185 .040985109 .1787262 .040985109 .14071656 .040985109 .051620485 .12998963-.021484375 .24099732-.021484375 .3600006-.021484375 .44799806 .06965637 .44799806 .17071533 .44799806 .26280213 .37399293 .33488465 .27799989 .35188294 .36499024 .3769226 .42099 .45011903 .42099 .5282135 .42099 .6071167 .33898927 .66503909 .24198914 .66503909 .14199829 .66503909 .067993167 .604126 .067993167 .5312042 .067993167 .49121095 .09899902 .48321534 .11399841 .48321534 .1349945 .48321534 .15899658 .49821473 .15899658 .5282135 .15899658 .5602112 .1349945 .57421877 .11299133 .57421877 .10699463 .57421877 .10499573 .57421877 .101989749 .57321169 .13999939 .641037 .23399353 .641037 .23899842 .641037 .27198792 .641037 .33699037 .6260681 .33699037 .5282135 .33699037 .5092163 .33399964 .453125 .30499269 .41001893 .2749939 .3658905 .24099732 .36288453 .21398926 .36187745L.18399048 .35888673Z"/>
<path id="font_3_5" d="M.5039978 .005508423C.6119995 .052490236 .70700076 .1775055 .70700076 .33869935 .70700076 .54592898 .5549927 .70410159 .3809967 .70410159 .20298767 .70410159 .053985597 .54393008 .053985597 .33869935 .053985597 .13748169 .20199585-.021484375 .3809967-.021484375 .4139862-.021484375 .44799806-.015487671 .47499085-.0064849855 .4909973-.1083374 .5039978-.19433594 .59399417-.19433594 .71099856-.19433594 .71199038-.019485474 .71199038-.010498047 .71199038-.00048828127 .71199038 .0084991459 .70199587 .0084991459 .69400027 .0084991459 .69400027 .0015106201 .69299319-.005493164 .6859894-.07739258 .6369934-.10134888 .60198977-.10134888 .5509949-.10134888 .5279999-.06440735 .5039978 .005508423M.31900025 .011505127C.24499512 .037506105 .14498902 .12347412 .14498902 .33969117 .14498902 .58898928 .27999879 .6820984 .37998963 .6820984 .4850006 .6820984 .6159973 .5859833 .6159973 .33969117 .6159973 .1965332 .57199099 .0934906 .49198915 .037506105 .47499085 .08747864 .44699098 .14648438 .38198854 .14648438 .33198548 .14648438 .30299378 .10348511 .30299378 .0625 .30299378 .035491945 .31698609 .014511108 .31900025 .011505127M.46998597 .023498536C.43998719 .007507324 .4079895 .00050354006 .3809967 .00050354006 .33799745 .00050354006 .32299806 .039505006 .32299806 .06349182 .32299806 .09248352 .34399415 .1264801 .38198854 .1264801 .43899537 .1264801 .45899964 .07948303 .46998597 .023498536Z"/>
<path id="font_3_1" d="M.43998719 .16790772H.41799928C.4149933 .15092469 .40699769 .09597778 .39698792 .07998657 .3899994 .070999149 .33299256 .070999149 .30299378 .070999149H.117996219C.14498902 .09397888 .20599365 .15792847 .23199463 .18190003 .38398744 .3217926 .43998719 .37374879 .43998719 .47270204 .43998719 .5878906 .34899903 .66503909 .23298645 .66503909 .116989139 .66503909 .04899597 .5658264 .04899597 .4797058 .04899597 .42871095 .09298706 .42871095 .09599304 .42871095 .116989139 .42871095 .14299011 .44371034 .14299011 .475708 .14299011 .5037079 .12399292 .5227051 .09599304 .5227051 .08699036 .5227051 .084991458 .5227051 .08198547 .521698 .100997928 .5899048 .15499878 .6360321 .21998596 .6360321 .30499269 .6360321 .35699464 .56481936 .35699464 .47270204 .35699464 .3877411 .30799867 .313797 .25099183 .24984741L.04899597 .023986817V0H.4139862L.43998719 .16790772Z"/>
<path id="font_3_3" d="M.47499085 .62054446V.6435547H.23399353C.11299133 .6435547 .11099243 .6567688 .10699463 .67578127H.084991458L.053985597 .47554017H.07598877C.07899475 .49354554 .08799744 .555542 .100997928 .5665436 .10899353 .5725403 .18399048 .5725403 .19799805 .5725403H.4099884L.3039856 .42053224C.2769928 .38153077 .17599488 .21751404 .17599488 .029510498 .17599488 .018508912 .17599488-.021484375 .21699524-.021484375 .25898744-.021484375 .25898744 .017501831 .25898744 .030517579V.08052063C.25898744 .2295227 .2829895 .34553529 .32998658 .41253663L.47499085 .62054446Z"/>
</defs>
<path transform="matrix(1,0,0,-1,152.408,116.659999)" stroke-width=".3985" stroke-linecap="butt" stroke-dasharray="2.98883,2.98883" stroke-miterlimit="10" stroke-linejoin="miter" fill="none" stroke="#7f807f" d="M-25.93932-33.48387-96.80629-75.46596"/>
<path transform="matrix(1,0,0,-1,152.408,116.659999)" stroke-width=".3985" stroke-linecap="butt" stroke-dasharray="2.98883,2.98883" stroke-miterlimit="10" stroke-linejoin="miter" fill="none" stroke="#7f807f" d="M-25.93932-33.48387 96.80629-57.72115"/>
<path transform="matrix(1,0,0,-1,152.408,116.659999)" stroke-width=".3985" stroke-linecap="butt" stroke-dasharray="2.98883,2.98883" stroke-miterlimit="10" stroke-linejoin="miter" fill="none" stroke="#7f807f" d="M-25.93932-33.48387V99.70323"/>
<path transform="matrix(1,0,0,-1,152.408,116.659999)" stroke-width=".3985" stroke-linecap="butt" stroke-miterlimit="10" stroke-linejoin="miter" fill="none" stroke="#7f807f" d="M-96.80629-75.46596 25.93932-99.70323 96.80629-57.72115-25.93932-33.48387"/>
<path transform="matrix(1,0,0,-1,152.408,116.659999)" stroke-width=".3985" stroke-linecap="butt" stroke-miterlimit="10" stroke-linejoin="miter" fill="none" stroke="#7f807f" d="M-96.80629-75.46596V57.72115L25.93932 33.48387V-99.70323"/>
<path transform="matrix(1,0,0,-1,152.408,116.659999)" stroke-width=".3985" stroke-linecap="butt" stroke-miterlimit="10" stroke-linejoin="miter" fill="none" stroke="#7f807f" d="M-96.80629 57.72115-25.93932 99.70323 96.80629 75.46596 25.93932 33.48387"/>
<path transform="matrix(1,0,0,-1,152.408,116.659999)" stroke-width=".3985" stroke-linecap="butt" stroke-miterlimit="10" stroke-linejoin="miter" fill="none" stroke="#7f807f" d="M96.80629-57.72115V75.46596"/>
<path transform="matrix(1,0,0,-1,152.408,116.659999)" stroke-width=".3985" stroke-linecap="butt" stroke-miterlimit="10" stroke-linejoin="miter" fill="none" stroke="#7f807f" d="M-25.93932 99.70323-96.80629 57.72115"/>
<path transform="matrix(1,0,0,-1,152.408,116.659999)" stroke-width=".3985" stroke-linecap="butt" stroke-miterlimit="10" stroke-linejoin="miter" fill="none" stroke="#7f807f" d="M25.93932-99.70323V33.48387"/>
<path transform="matrix(1,0,0,-1,152.408,116.659999)" d="M-23.94676-33.48387C-23.94676-32.38339-24.83884-31.49132-25.93932-31.49132-27.03978-31.49132-27.93187-32.38339-27.93187-33.48387-27.93187-34.58434-27.03978-35.47643-25.93932-35.47643-24.83884-35.47643-23.94676-34.58434-23.94676-33.48387ZM-25.93932-33.48387"/>
<path transform="matrix(1,0,0,-1,152.408,116.659999)" d="M-23.94676 33.10968C-23.94676 34.21014-24.83884 35.10223-25.93932 35.10223-27.03978 35.10223-27.93187 34.21014-27.93187 33.10968-27.93187 32.0092-27.03978 31.11713-25.93932 31.11713-24.83884 31.11713-23.94676 32.0092-23.94676 33.10968ZM-25.93932 33.10968"/>
<path transform="matrix(1,0,0,-1,152.408,116.659999)" d="M-23.94676 99.70323C-23.94676 100.8037-24.83884 101.69579-25.93932 101.69579-27.03978 101.69579-27.93187 100.8037-27.93187 99.70323-27.93187 98.60277-27.03978 97.71068-25.93932 97.71068-24.83884 97.71068-23.94676 98.60277-23.94676 99.70323ZM-25.93932 99.70323"/>
<path transform="matrix(1,0,0,-1,152.408,116.659999)" d="M37.42603-45.60251C37.42603-44.50203 36.53395-43.60995 35.43347-43.60995 34.33301-43.60995 33.44092-44.50203 33.44092-45.60251 33.44092-46.70297 34.33301-47.59506 35.43347-47.59506 36.53395-47.59506 37.42603-46.70297 37.42603-45.60251ZM35.43347-45.60251"/>
<path transform="matrix(1,0,0,-1,152.408,116.659999)" d="M37.42603 20.99104C37.42603 22.0915 36.53395 22.9836 35.43347 22.9836 34.33301 22.9836 33.44092 22.0915 33.44092 20.99104 33.44092 19.89056 34.33301 18.99849 35.43347 18.99849 36.53395 18.99849 37.42603 19.89056 37.42603 20.99104ZM35.43347 20.99104"/>
<path transform="matrix(1,0,0,-1,152.408,116.659999)" d="M37.42603 87.5846C37.42603 88.68506 36.53395 89.57715 35.43347 89.57715 34.33301 89.57715 33.44092 88.68506 33.44092 87.5846 33.44092 86.48413 34.33301 85.59204 35.43347 85.59204 36.53395 85.59204 37.42603 86.48413 37.42603 87.5846ZM35.43347 87.5846"/>
<path transform="matrix(1,0,0,-1,152.408,116.659999)" d="M98.79884-57.72115C98.79884-56.62067 97.90677-55.72859 96.80629-55.72859 95.70583-55.72859 94.81374-56.62067 94.81374-57.72115 94.81374-58.82161 95.70583-59.7137 96.80629-59.7137 97.90677-59.7137 98.79884-58.82161 98.79884-57.72115ZM96.80629-57.72115"/>
<path transform="matrix(1,0,0,-1,152.408,116.659999)" d="M98.79884 8.8724C98.79884 9.97287 97.90677 10.86496 96.80629 10.86496 95.70583 10.86496 94.81374 9.97287 94.81374 8.8724 94.81374 7.77193 95.70583 6.87985 96.80629 6.87985 97.90677 6.87985 98.79884 7.77193 98.79884 8.8724ZM96.80629 8.8724"/>
<path transform="matrix(1,0,0,-1,152.408,116.659999)" d="M98.79884 75.46596C98.79884 76.56642 97.90677 77.45851 96.80629 77.45851 95.70583 77.45851 94.81374 76.56642 94.81374 75.46596 94.81374 74.3655 95.70583 73.4734 96.80629 73.4734 97.90677 73.4734 98.79884 74.3655 98.79884 75.46596ZM96.80629 75.46596"/>
<path transform="matrix(1,0,0,-1,152.408,116.659999)" d="M-59.38026-54.47491C-59.38026-53.37444-60.27234-52.48236-61.37282-52.48236-62.47328-52.48236-63.36537-53.37444-63.36537-54.47491-63.36537-55.57538-62.47328-56.46747-61.37282-56.46747-60.27234-56.46747-59.38026-55.57538-59.38026-54.47491ZM-61.37282-54.47491"/>
<path transform="matrix(1,0,0,-1,152.408,116.659999)" d="M-59.38026 12.11864C-59.38026 13.2191-60.27234 14.11119-61.37282 14.11119-62.47328 14.11119-63.36537 13.2191-63.36537 12.11864-63.36537 11.01816-62.47328 10.12608-61.37282 10.12608-60.27234 10.12608-59.38026 11.01816-59.38026 12.11864ZM-61.37282 12.11864"/>
<path transform="matrix(1,0,0,-1,152.408,116.659999)" d="M-59.38026 78.71219C-59.38026 79.81265-60.27234 80.70474-61.37282 80.70474-62.47328 80.70474-63.36537 79.81265-63.36537 78.71219-63.36537 77.61171-62.47328 76.71964-61.37282 76.71964-60.27234 76.71964-59.38026 77.61171-59.38026 78.71219ZM-61.37282 78.71219"/>
<path transform="matrix(1,0,0,-1,152.408,116.659999)" d="M1.99255-66.59355C1.99255-65.49307 1.10046-64.601 0-64.601-1.10046-64.601-1.99255-65.49307-1.99255-66.59355-1.99255-67.69402-1.10046-68.5861 0-68.5861 1.10046-68.5861 1.99255-67.69402 1.99255-66.59355ZM0-66.59355"/>
<path transform="matrix(1,0,0,-1,152.408,116.659999)" d="M1.99255 0C1.99255 1.10046 1.10046 1.99255 0 1.99255-1.10046 1.99255-1.99255 1.10046-1.99255 0-1.99255-1.10046-1.10046-1.99255 0-1.99255 1.10046-1.99255 1.99255-1.10046 1.99255 0ZM0 0"/>
<path transform="matrix(1,0,0,-1,152.408,116.659999)" d="M1.99255 66.59355C1.99255 67.69402 1.10046 68.5861 0 68.5861-1.10046 68.5861-1.99255 67.69402-1.99255 66.59355-1.99255 65.49307-1.10046 64.601 0 64.601 1.10046 64.601 1.99255 65.49307 1.99255 66.59355ZM0 66.59355"/>
<path transform="matrix(1,0,0,-1,152.408,116.659999)" d="M63.36537-78.71219C63.36537-77.61171 62.47328-76.71964 61.37282-76.71964 60.27234-76.71964 59.38026-77.61171 59.38026-78.71219 59.38026-79.81265 60.27234-80.70474 61.37282-80.70474 62.47328-80.70474 63.36537-79.81265 63.36537-78.71219ZM61.37282-78.71219"/>
<path transform="matrix(1,0,0,-1,152.408,116.659999)" d="M63.36537-12.11864C63.36537-11.01816 62.47328-10.12608 61.37282-10.12608 60.27234-10.12608 59.38026-11.01816 59.38026-12.11864 59.38026-13.2191 60.27234-14.11119 61.37282-14.11119 62.47328-14.11119 63.36537-13.2191 63.36537-12.11864ZM61.37282-12.11864"/>
<path transform="matrix(1,0,0,-1,152.408,116.659999)" d="M63.36537 54.47491C63.36537 55.57538 62.47328 56.46747 61.37282 56.46747 60.27234 56.46747 59.38026 55.57538 59.38026 54.47491 59.38026 53.37444 60.27234 52.48236 61.37282 52.48236 62.47328 52.48236 63.36537 53.37444 63.36537 54.47491ZM61.37282 54.47491"/>
<path transform="matrix(1,0,0,-1,152.408,116.659999)" d="M-94.81374-75.46596C-94.81374-74.3655-95.70583-73.4734-96.80629-73.4734-97.90677-73.4734-98.79884-74.3655-98.79884-75.46596-98.79884-76.56642-97.90677-77.45851-96.80629-77.45851-95.70583-77.45851-94.81374-76.56642-94.81374-75.46596ZM-96.80629-75.46596"/>
<path transform="matrix(1,0,0,-1,152.408,116.659999)" d="M-94.81374-8.8724C-94.81374-7.77193-95.70583-6.87985-96.80629-6.87985-97.90677-6.87985-98.79884-7.77193-98.79884-8.8724-98.79884-9.97287-97.90677-10.86496-96.80629-10.86496-95.70583-10.86496-94.81374-9.97287-94.81374-8.8724ZM-96.80629-8.8724"/>
<path transform="matrix(1,0,0,-1,152.408,116.659999)" d="M-94.81374 57.72115C-94.81374 58.82161-95.70583 59.7137-96.80629 59.7137-97.90677 59.7137-98.79884 58.82161-98.79884 57.72115-98.79884 56.62067-97.90677 55.72859-96.80629 55.72859-95.70583 55.72859-94.81374 56.62067-94.81374 57.72115ZM-96.80629 57.72115"/>
<path transform="matrix(1,0,0,-1,152.408,116.659999)" d="M-33.44092-87.5846C-33.44092-86.48413-34.33301-85.59204-35.43347-85.59204-36.53395-85.59204-37.42603-86.48413-37.42603-87.5846-37.42603-88.68506-36.53395-89.57715-35.43347-89.57715-34.33301-89.57715-33.44092-88.68506-33.44092-87.5846ZM-35.43347-87.5846"/>
<path transform="matrix(1,0,0,-1,152.408,116.659999)" d="M-33.44092-20.99104C-33.44092-19.89056-34.33301-18.99849-35.43347-18.99849-36.53395-18.99849-37.42603-19.89056-37.42603-20.99104-37.42603-22.0915-36.53395-22.9836-35.43347-22.9836-34.33301-22.9836-33.44092-22.0915-33.44092-20.99104ZM-35.43347-20.99104"/>
<path transform="matrix(1,0,0,-1,152.408,116.659999)" d="M-33.44092 45.60251C-33.44092 46.70297-34.33301 47.59506-35.43347 47.59506-36.53395 47.59506-37.42603 46.70297-37.42603 45.60251-37.42603 44.50203-36.53395 43.60995-35.43347 43.60995-34.33301 43.60995-33.44092 44.50203-33.44092 45.60251ZM-35.43347 45.60251"/>
<path transform="matrix(1,0,0,-1,152.408,116.659999)" d="M27.93187-99.70323C27.93187-98.60277 27.03978-97.71068 25.93932-97.71068 24.83884-97.71068 23.94676-98.60277 23.94676-99.70323 23.94676-100.8037 24.83884-101.69579 25.93932-101.69579 27.03978-101.69579 27.93187-100.8037 27.93187-99.70323ZM25.93932-99.70323"/>
<path transform="matrix(1,0,0,-1,152.408,116.659999)" d="M27.93187-33.10968C27.93187-32.0092 27.03978-31.11713 25.93932-31.11713 24.83884-31.11713 23.94676-32.0092 23.94676-33.10968 23.94676-34.21014 24.83884-35.10223 25.93932-35.10223 27.03978-35.10223 27.93187-34.21014 27.93187-33.10968ZM25.93932-33.10968"/>
<path transform="matrix(1,0,0,-1,152.408,116.659999)" d="M27.93187 33.48387C27.93187 34.58434 27.03978 35.47643 25.93932 35.47643 24.83884 35.47643 23.94676 34.58434 23.94676 33.48387 23.94676 32.38339 24.83884 31.49132 25.93932 31.49132 27.03978 31.49132 27.93187 32.38339 27.93187 33.48387ZM25.93932 33.48387"/>
<path transform="matrix(1,0,0,-1,152.408,116.659999)" d="M2.98883 0C2.98883 1.6507 1.6507 2.98883 0 2.98883-1.6507 2.98883-2.98883 1.6507-2.98883 0-2.98883-1.6507-1.6507-2.98883 0-2.98883 1.6507-2.98883 2.98883-1.6507 2.98883 0ZM0 0" fill="#009900"/>
<path transform="matrix(1,0,0,-1,152.408,116.659999)" stroke-width="1.99255" stroke-linecap="butt" stroke-miterlimit="10" stroke-linejoin="miter" fill="none" stroke="#7f807f" stroke-opacity=".7" d="M-2.74335-1.62515-29.19643-17.29617"/>
<g>
<path transform="matrix(-.86032,.50966,.50966,.86032,127.25995,131.55789)" d="M9.11794 0 3.21756 2.2453 5.20377 0 3.21756-2.2453Z" fill="#7f807f" fill-opacity=".7"/>
<path transform="matrix(-.86032,.50966,.50966,.86032,127.25995,131.55789)" stroke-width="1.99255" stroke-linecap="butt" stroke-miterlimit="10" stroke-linejoin="miter" fill="none" stroke="#7f807f" stroke-opacity=".7" d="M9.11794 0 3.21756 2.2453 5.20377 0 3.21756-2.2453Z"/>
</g>
<path transform="matrix(1,0,0,-1,152.408,116.659999)" stroke-width="1.99255" stroke-linecap="butt" stroke-miterlimit="10" stroke-linejoin="miter" fill="none" stroke="#7f807f" stroke-opacity=".7" d="M2.74335 1.62515 29.19643 17.29617"/>
<g>
<path transform="matrix(.86032,-.50966,-.50966,-.86032,177.55606,101.7621)" d="M9.11794 0 3.21756 2.2453 5.20377 0 3.21756-2.2453Z" fill="#7f807f" fill-opacity=".7"/>
<path transform="matrix(.86032,-.50966,-.50966,-.86032,177.55606,101.7621)" stroke-width="1.99255" stroke-linecap="butt" stroke-miterlimit="10" stroke-linejoin="miter" fill="none" stroke="#7f807f" stroke-opacity=".7" d="M9.11794 0 3.21756 2.2453 5.20377 0 3.21756-2.2453Z"/>
</g>
<path transform="matrix(1,0,0,-1,152.408,116.659999)" stroke-width="1.99255" stroke-linecap="butt" stroke-miterlimit="10" stroke-linejoin="miter" fill="none" stroke="#7f807f" stroke-opacity=".7" d="M3.1282-.61765 54.26074-10.7143"/>
<g>
<path transform="matrix(.98102,.19371,.19371,-.98102,202.05243,126.46275)" d="M9.11794 0 3.21756 2.2453 5.20377 0 3.21756-2.2453Z" fill="#7f807f" fill-opacity=".7"/>
<path transform="matrix(.98102,.19371,.19371,-.98102,202.05243,126.46275)" stroke-width="1.99255" stroke-linecap="butt" stroke-miterlimit="10" stroke-linejoin="miter" fill="none" stroke="#7f807f" stroke-opacity=".7" d="M9.11794 0 3.21756 2.2453 5.20377 0 3.21756-2.2453Z"/>
</g>
<path transform="matrix(1,0,0,-1,152.408,116.659999)" stroke-width="1.99255" stroke-linecap="butt" stroke-miterlimit="10" stroke-linejoin="miter" fill="none" stroke="#7f807f" stroke-opacity=".7" d="M-3.1282 .61765-54.26074 10.7143"/>
<g>
<path transform="matrix(-.98102,-.19371,-.19371,.98102,102.76358,106.85724)" d="M9.11794 0 3.21756 2.2453 5.20377 0 3.21756-2.2453Z" fill="#7f807f" fill-opacity=".7"/>
<path transform="matrix(-.98102,-.19371,-.19371,.98102,102.76358,106.85724)" stroke-width="1.99255" stroke-linecap="butt" stroke-miterlimit="10" stroke-linejoin="miter" fill="none" stroke="#7f807f" stroke-opacity=".7" d="M9.11794 0 3.21756 2.2453 5.20377 0 3.21756-2.2453Z"/>
</g>
<path transform="matrix(1,0,0,-1,152.408,116.659999)" stroke-width="1.99255" stroke-linecap="butt" stroke-miterlimit="10" stroke-linejoin="miter" fill="none" stroke="#7f807f" stroke-opacity=".7" d="M0 3.18872V59.34386"/>
<g>
<path transform="matrix(0,-1,-1,-0,152.408,62.021768)" d="M9.11794 0 3.21756 2.2453 5.20377 0 3.21756-2.2453Z" fill="#7f807f" fill-opacity=".7"/>
<path transform="matrix(0,-1,-1,-0,152.408,62.021768)" stroke-width="1.99255" stroke-linecap="butt" stroke-miterlimit="10" stroke-linejoin="miter" fill="none" stroke="#7f807f" stroke-opacity=".7" d="M9.11794 0 3.21756 2.2453 5.20377 0 3.21756-2.2453Z"/>
</g>
<path transform="matrix(1,0,0,-1,152.408,116.659999)" stroke-width="1.99255" stroke-linecap="butt" stroke-miterlimit="10" stroke-linejoin="miter" fill="none" stroke="#7f807f" stroke-opacity=".7" d="M0-3.18872V-59.34386"/>
<g>
<path transform="matrix(0,1,1,0,152.408,171.29822)" d="M9.11794 0 3.21756 2.2453 5.20377 0 3.21756-2.2453Z" fill="#7f807f" fill-opacity=".7"/>
<path transform="matrix(0,1,1,0,152.408,171.29822)" stroke-width="1.99255" stroke-linecap="butt" stroke-miterlimit="10" stroke-linejoin="miter" fill="none" stroke="#7f807f" stroke-opacity=".7" d="M9.11794 0 3.21756 2.2453 5.20377 0 3.21756-2.2453Z"/>
</g>
<path transform="matrix(1,0,0,-1,152.408,116.659999)" stroke-width="1.99255" stroke-linecap="butt" stroke-miterlimit="10" stroke-linejoin="miter" fill="none" stroke="#7f807f" stroke-opacity=".7" d="M1.9664-2.51007 21.46855-27.40294"/>
<g>
<path transform="matrix(.61668,.78717,.78717,-.61668,170.97466,140.35878)" d="M9.11794 0 3.21756 2.2453 5.20377 0 3.21756-2.2453Z" fill="#7f807f" fill-opacity=".7"/>
<path transform="matrix(.61668,.78717,.78717,-.61668,170.97466,140.35878)" stroke-width="1.99255" stroke-linecap="butt" stroke-miterlimit="10" stroke-linejoin="miter" fill="none" stroke="#7f807f" stroke-opacity=".7" d="M9.11794 0 3.21756 2.2453 5.20377 0 3.21756-2.2453Z"/>
</g>
<path transform="matrix(1,0,0,-1,152.408,116.659999)" stroke-width="1.99255" stroke-linecap="butt" stroke-miterlimit="10" stroke-linejoin="miter" fill="none" stroke="#7f807f" stroke-opacity=".7" d="M-3.17526-.29091-89.58727-8.21089"/>
<g>
<path transform="matrix(-.99577,.09125,.09125,.99577,67.50651,124.441509)" d="M9.11794 0 3.21756 2.2453 5.20377 0 3.21756-2.2453Z" fill="#7f807f" fill-opacity=".7"/>
<path transform="matrix(-.99577,.09125,.09125,.99577,67.50651,124.441509)" stroke-width="1.99255" stroke-linecap="butt" stroke-miterlimit="10" stroke-linejoin="miter" fill="none" stroke="#7f807f" stroke-opacity=".7" d="M9.11794 0 3.21756 2.2453 5.20377 0 3.21756-2.2453Z"/>
</g>
<path transform="matrix(1,0,0,-1,152.408,116.659999)" stroke-width="1.99255" stroke-linecap="butt" stroke-miterlimit="10" stroke-linejoin="miter" fill="none" stroke="#7f807f" stroke-opacity=".7" d="M3.17526 .29091 89.58727 8.21089"/>
<g>
<path transform="matrix(.99577,-.09125,-.09125,-.99577,237.30951,108.87849)" d="M9.11794 0 3.21756 2.2453 5.20377 0 3.21756-2.2453Z" fill="#7f807f" fill-opacity=".7"/>
<path transform="matrix(.99577,-.09125,-.09125,-.99577,237.30951,108.87849)" stroke-width="1.99255" stroke-linecap="butt" stroke-miterlimit="10" stroke-linejoin="miter" fill="none" stroke="#7f807f" stroke-opacity=".7" d="M9.11794 0 3.21756 2.2453 5.20377 0 3.21756-2.2453Z"/>
</g>
<path transform="matrix(1,0,0,-1,152.408,116.659999)" stroke-width="1.99255" stroke-linecap="butt" stroke-miterlimit="10" stroke-linejoin="miter" fill="none" stroke="#7f807f" stroke-opacity=".7" d="M-1.9664 2.51007-21.46855 27.40294"/>
<g>
<path transform="matrix(-.61668,-.78717,-.78717,.61668,133.84136,92.961208)" d="M9.11794 0 3.21756 2.2453 5.20377 0 3.21756-2.2453Z" fill="#7f807f" fill-opacity=".7"/>
<path transform="matrix(-.61668,-.78717,-.78717,.61668,133.84136,92.961208)" stroke-width="1.99255" stroke-linecap="butt" stroke-miterlimit="10" stroke-linejoin="miter" fill="none" stroke="#7f807f" stroke-opacity=".7" d="M9.11794 0 3.21756 2.2453 5.20377 0 3.21756-2.2453Z"/>
</g>
<path transform="matrix(1,0,0,-1,152.408,116.659999)" stroke-width="1.99255" stroke-linecap="butt" stroke-miterlimit="10" stroke-linejoin="miter" fill="none" stroke="#7f807f" stroke-opacity=".7" d="M-1.95633 2.51785-30.98563 39.87808"/>
<g>
<path transform="matrix(-.61353,-.78961,-.78961,.61353,124.30942,80.49754)" d="M9.11794 0 3.21756 2.2453 5.20377 0 3.21756-2.2453Z" fill="#7f807f" fill-opacity=".7"/>
<path transform="matrix(-.61353,-.78961,-.78961,.61353,124.30942,80.49754)" stroke-width="1.99255" stroke-linecap="butt" stroke-miterlimit="10" stroke-linejoin="miter" fill="none" stroke="#7f807f" stroke-opacity=".7" d="M9.11794 0 3.21756 2.2453 5.20377 0 3.21756-2.2453Z"/>
</g>
<path transform="matrix(1,0,0,-1,152.408,116.659999)" stroke-width="1.99255" stroke-linecap="butt" stroke-miterlimit="10" stroke-linejoin="miter" fill="none" stroke="#7f807f" stroke-opacity=".7" d="M-1.19574-2.95598-32.71484-80.86414"/>
<g>
<path transform="matrix(-.375,.927,.927,.375,121.45778,193.16199)" d="M9.11794 0 3.21756 2.2453 5.20377 0 3.21756-2.2453Z" fill="#7f807f" fill-opacity=".7"/>
<path transform="matrix(-.375,.927,.927,.375,121.45778,193.16199)" stroke-width="1.99255" stroke-linecap="butt" stroke-miterlimit="10" stroke-linejoin="miter" fill="none" stroke="#7f807f" stroke-opacity=".7" d="M9.11794 0 3.21756 2.2453 5.20377 0 3.21756-2.2453Z"/>
</g>
<path transform="matrix(1,0,0,-1,152.408,116.659999)" stroke-width="1.99255" stroke-linecap="butt" stroke-miterlimit="10" stroke-linejoin="miter" fill="none" stroke="#7f807f" stroke-opacity=".7" d="M1.19574 2.95598 32.71484 80.86414"/>
<g>
<path transform="matrix(.375,-.927,-.927,-.375,183.35823,40.158014)" d="M9.11794 0 3.21756 2.2453 5.20377 0 3.21756-2.2453Z" fill="#7f807f" fill-opacity=".7"/>
<path transform="matrix(.375,-.927,-.927,-.375,183.35823,40.158014)" stroke-width="1.99255" stroke-linecap="butt" stroke-miterlimit="10" stroke-linejoin="miter" fill="none" stroke="#7f807f" stroke-opacity=".7" d="M9.11794 0 3.21756 2.2453 5.20377 0 3.21756-2.2453Z"/>
</g>
<path transform="matrix(1,0,0,-1,152.408,116.659999)" stroke-width="1.99255" stroke-linecap="butt" stroke-miterlimit="10" stroke-linejoin="miter" fill="none" stroke="#7f807f" stroke-opacity=".7" d="M1.95633-2.51785 30.98563-39.87808"/>
<g>
<path transform="matrix(.61353,.78961,.78961,-.61353,180.50659,152.82245)" d="M9.11794 0 3.21756 2.2453 5.20377 0 3.21756-2.2453Z" fill="#7f807f" fill-opacity=".7"/>
<path transform="matrix(.61353,.78961,.78961,-.61353,180.50659,152.82245)" stroke-width="1.99255" stroke-linecap="butt" stroke-miterlimit="10" stroke-linejoin="miter" fill="none" stroke="#7f807f" stroke-opacity=".7" d="M9.11794 0 3.21756 2.2453 5.20377 0 3.21756-2.2453Z"/>
</g>
<path transform="matrix(1,0,0,-1,152.408,116.659999)" stroke-width="1.99255" stroke-linecap="butt" stroke-miterlimit="10" stroke-linejoin="miter" fill="none" stroke="#7f807f" stroke-opacity=".7" d="M2.38467 2.11664 55.95114 49.66267"/>
<g>
<path transform="matrix(.74785,-.66379,-.66379,-.74785,204.84004,70.12088)" d="M9.11794 0 3.21756 2.2453 5.20377 0 3.21756-2.2453Z" fill="#7f807f" fill-opacity=".7"/>
<path transform="matrix(.74785,-.66379,-.66379,-.74785,204.84004,70.12088)" stroke-width="1.99255" stroke-linecap="butt" stroke-miterlimit="10" stroke-linejoin="miter" fill="none" stroke="#7f807f" stroke-opacity=".7" d="M9.11794 0 3.21756 2.2453 5.20377 0 3.21756-2.2453Z"/>
</g>
<path transform="matrix(1,0,0,-1,152.408,116.659999)" stroke-width="1.99255" stroke-linecap="butt" stroke-miterlimit="10" stroke-linejoin="miter" fill="none" stroke="#7f807f" stroke-opacity=".7" d="M1.96062-2.51459 56.9152-72.99516"/>
<g>
<path transform="matrix(.61487,.78859,.78859,-.61487,206.42987,185.94434)" d="M9.11794 0 3.21756 2.2453 5.20377 0 3.21756-2.2453Z" fill="#7f807f" fill-opacity=".7"/>
<path transform="matrix(.61487,.78859,.78859,-.61487,206.42987,185.94434)" stroke-width="1.99255" stroke-linecap="butt" stroke-miterlimit="10" stroke-linejoin="miter" fill="none" stroke="#7f807f" stroke-opacity=".7" d="M9.11794 0 3.21756 2.2453 5.20377 0 3.21756-2.2453Z"/>
</g>
<path transform="matrix(1,0,0,-1,152.408,116.659999)" stroke-width="1.99255" stroke-linecap="butt" stroke-miterlimit="10" stroke-linejoin="miter" fill="none" stroke="#7f807f" stroke-opacity=".7" d="M-1.96062 2.51459-56.9152 72.99516"/>
<g>
<path transform="matrix(-.61487,-.78859,-.78859,.61487,98.38614,47.37565)" d="M9.11794 0 3.21756 2.2453 5.20377 0 3.21756-2.2453Z" fill="#7f807f" fill-opacity=".7"/>
<path transform="matrix(-.61487,-.78859,-.78859,.61487,98.38614,47.37565)" stroke-width="1.99255" stroke-linecap="butt" stroke-miterlimit="10" stroke-linejoin="miter" fill="none" stroke="#7f807f" stroke-opacity=".7" d="M9.11794 0 3.21756 2.2453 5.20377 0 3.21756-2.2453Z"/>
</g>
<path transform="matrix(1,0,0,-1,152.408,116.659999)" stroke-width="1.99255" stroke-linecap="butt" stroke-miterlimit="10" stroke-linejoin="miter" fill="none" stroke="#7f807f" stroke-opacity=".7" d="M-2.38467-2.11664-55.95114-49.66267"/>
<g>
<path transform="matrix(-.74785,.66379,.66379,.74785,99.97597,163.19911)" d="M9.11794 0 3.21756 2.2453 5.20377 0 3.21756-2.2453Z" fill="#7f807f" fill-opacity=".7"/>
<path transform="matrix(-.74785,.66379,.66379,.74785,99.97597,163.19911)" stroke-width="1.99255" stroke-linecap="butt" stroke-miterlimit="10" stroke-linejoin="miter" fill="none" stroke="#7f807f" stroke-opacity=".7" d="M9.11794 0 3.21756 2.2453 5.20377 0 3.21756-2.2453Z"/>
</g>
<path transform="matrix(1,0,0,-1,152.408,116.659999)" stroke-width="1.99255" stroke-linecap="butt" stroke-miterlimit="10" stroke-linejoin="miter" fill="none" stroke="#7f807f" stroke-opacity=".7" d="M1.95268 2.52066 21.49976 27.75302"/>
<g>
<path transform="matrix(.61238,-.7905,-.7905,-.61238,171.02611,92.62678)" d="M9.11794 0 3.21756 2.2453 5.20377 0 3.21756-2.2453Z" fill="#7f807f" fill-opacity=".7"/>
<path transform="matrix(.61238,-.7905,-.7905,-.61238,171.02611,92.62678)" stroke-width="1.99255" stroke-linecap="butt" stroke-miterlimit="10" stroke-linejoin="miter" fill="none" stroke="#7f807f" stroke-opacity=".7" d="M9.11794 0 3.21756 2.2453 5.20377 0 3.21756-2.2453Z"/>
</g>
<path transform="matrix(1,0,0,-1,152.408,116.659999)" stroke-width="1.99255" stroke-linecap="butt" stroke-miterlimit="10" stroke-linejoin="miter" fill="none" stroke="#7f807f" stroke-opacity=".7" d="M.80273-3.08588 24.11418-92.68741"/>
<g>
<path transform="matrix(.25175,.96774,.96774,-.25175,175.33751,204.79355)" d="M9.11794 0 3.21756 2.2453 5.20377 0 3.21756-2.2453Z" fill="#7f807f" fill-opacity=".7"/>
<path transform="matrix(.25175,.96774,.96774,-.25175,175.33751,204.79355)" stroke-width="1.99255" stroke-linecap="butt" stroke-miterlimit="10" stroke-linejoin="miter" fill="none" stroke="#7f807f" stroke-opacity=".7" d="M9.11794 0 3.21756 2.2453 5.20377 0 3.21756-2.2453Z"/>
</g>
<path transform="matrix(1,0,0,-1,152.408,116.659999)" stroke-width="1.99255" stroke-linecap="butt" stroke-miterlimit="10" stroke-linejoin="miter" fill="none" stroke="#7f807f" stroke-opacity=".7" d="M-2.73871 1.63295-90.57974 54.00859"/>
<g>
<path transform="matrix(-.85887,-.5121,-.5121,.85887,65.8698,65.06117)" d="M9.11794 0 3.21756 2.2453 5.20377 0 3.21756-2.2453Z" fill="#7f807f" fill-opacity=".7"/>
<path transform="matrix(-.85887,-.5121,-.5121,.85887,65.8698,65.06117)" stroke-width="1.99255" stroke-linecap="butt" stroke-miterlimit="10" stroke-linejoin="miter" fill="none" stroke="#7f807f" stroke-opacity=".7" d="M9.11794 0 3.21756 2.2453 5.20377 0 3.21756-2.2453Z"/>
</g>
<path transform="matrix(1,0,0,-1,152.408,116.659999)" stroke-width="1.99255" stroke-linecap="butt" stroke-miterlimit="10" stroke-linejoin="miter" fill="none" stroke="#7f807f" stroke-opacity=".7" d="M-2.51474-1.96043-91.08894-71.00882"/>
<g>
<path transform="matrix(-.78864,.6148,.6148,.78864,65.0301,184.77573)" d="M9.11794 0 3.21756 2.2453 5.20377 0 3.21756-2.2453Z" fill="#7f807f" fill-opacity=".7"/>
<path transform="matrix(-.78864,.6148,.6148,.78864,65.0301,184.77573)" stroke-width="1.99255" stroke-linecap="butt" stroke-miterlimit="10" stroke-linejoin="miter" fill="none" stroke="#7f807f" stroke-opacity=".7" d="M9.11794 0 3.21756 2.2453 5.20377 0 3.21756-2.2453Z"/>
</g>
<path transform="matrix(1,0,0,-1,152.408,116.659999)" stroke-width="1.99255" stroke-linecap="butt" stroke-miterlimit="10" stroke-linejoin="miter" fill="none" stroke="#7f807f" stroke-opacity=".7" d="M2.51474 1.96043 91.08894 71.00882"/>
<g>
<path transform="matrix(.78864,-.6148,-.6148,-.78864,239.78592,48.54426)" d="M9.11794 0 3.21756 2.2453 5.20377 0 3.21756-2.2453Z" fill="#7f807f" fill-opacity=".7"/>
<path transform="matrix(.78864,-.6148,-.6148,-.78864,239.78592,48.54426)" stroke-width="1.99255" stroke-linecap="butt" stroke-miterlimit="10" stroke-linejoin="miter" fill="none" stroke="#7f807f" stroke-opacity=".7" d="M9.11794 0 3.21756 2.2453 5.20377 0 3.21756-2.2453Z"/>
</g>
<path transform="matrix(1,0,0,-1,152.408,116.659999)" stroke-width="1.99255" stroke-linecap="butt" stroke-miterlimit="10" stroke-linejoin="miter" fill="none" stroke="#7f807f" stroke-opacity=".7" d="M2.73871-1.63295 90.57974-54.00859"/>
<g>
<path transform="matrix(.85887,.5121,.5121,-.85887,238.94622,168.25882)" d="M9.11794 0 3.21756 2.2453 5.20377 0 3.21756-2.2453Z" fill="#7f807f" fill-opacity=".7"/>
<path transform="matrix(.85887,.5121,.5121,-.85887,238.94622,168.25882)" stroke-width="1.99255" stroke-linecap="butt" stroke-miterlimit="10" stroke-linejoin="miter" fill="none" stroke="#7f807f" stroke-opacity=".7" d="M9.11794 0 3.21756 2.2453 5.20377 0 3.21756-2.2453Z"/>
</g>
<path transform="matrix(1,0,0,-1,152.408,116.659999)" stroke-width="1.99255" stroke-linecap="butt" stroke-miterlimit="10" stroke-linejoin="miter" fill="none" stroke="#7f807f" stroke-opacity=".7" d="M-.80273 3.08588-24.11418 92.68741"/>
<g>
<path transform="matrix(-.25175,-.96774,-.96774,.25175,129.4785,28.526436)" d="M9.11794 0 3.21756 2.2453 5.20377 0 3.21756-2.2453Z" fill="#7f807f" fill-opacity=".7"/>
<path transform="matrix(-.25175,-.96774,-.96774,.25175,129.4785,28.526436)" stroke-width="1.99255" stroke-linecap="butt" stroke-miterlimit="10" stroke-linejoin="miter" fill="none" stroke="#7f807f" stroke-opacity=".7" d="M9.11794 0 3.21756 2.2453 5.20377 0 3.21756-2.2453Z"/>
</g>
<path transform="matrix(1,0,0,-1,152.408,116.659999)" stroke-width="1.99255" stroke-linecap="butt" stroke-miterlimit="10" stroke-linejoin="miter" fill="none" stroke="#7f807f" stroke-opacity=".7" d="M-1.95268-2.52066-21.49976-27.75302"/>
<g>
<path transform="matrix(-.61238,.7905,.7905,.61238,133.7899,140.69322)" d="M9.11794 0 3.21756 2.2453 5.20377 0 3.21756-2.2453Z" fill="#7f807f" fill-opacity=".7"/>
<path transform="matrix(-.61238,.7905,.7905,.61238,133.7899,140.69322)" stroke-width="1.99255" stroke-linecap="butt" stroke-miterlimit="10" stroke-linejoin="miter" fill="none" stroke="#7f807f" stroke-opacity=".7" d="M9.11794 0 3.21756 2.2453 5.20377 0 3.21756-2.2453Z"/>
</g>
<use data-text="8" xlink:href="#font_1_7" transform="matrix(6.9738,0,0,-6.9738,141.73601,124.673999)" fill="#0000ff"/>
<path transform="matrix(1,0,0,-1,139.75002,126.105998)" stroke-width=".398" stroke-linecap="butt" stroke-miterlimit="10" stroke-linejoin="miter" fill="none" stroke="#0000ff" d="M0 0H7.942"/>
<use data-text="2" xlink:href="#font_1_2" transform="matrix(6.9738,0,0,-6.9738,139.75002,132.032)" fill="#0000ff"/>
<use data-text="7" xlink:href="#font_1_6" transform="matrix(6.9738,0,0,-6.9738,143.72509,132.032)" fill="#0000ff"/>
<use data-text="2" xlink:href="#font_1_2" transform="matrix(6.9738,0,0,-6.9738,106.30301,145.66501)" fill="#0000ff"/>
<path transform="matrix(1,0,0,-1,104.31701,147.097)" stroke-width=".398" stroke-linecap="butt" stroke-miterlimit="10" stroke-linejoin="miter" fill="none" stroke="#0000ff" d="M0 0H7.942"/>
<use data-text="2" xlink:href="#font_1_2" transform="matrix(6.9738,0,0,-6.9738,104.31701,153.023)" fill="#0000ff"/>
<use data-text="7" xlink:href="#font_1_6" transform="matrix(6.9738,0,0,-6.9738,108.292079,153.023)" fill="#0000ff"/>
<use data-text="1" xlink:href="#font_1_1" transform="matrix(6.9738,0,0,-6.9738,167.675,157.78299)" fill="#0000ff"/>
<path transform="matrix(1,0,0,-1,165.689,159.215)" stroke-width=".398" stroke-linecap="butt" stroke-miterlimit="10" stroke-linejoin="miter" fill="none" stroke="#0000ff" d="M0 0H7.942"/>
<use data-text="5" xlink:href="#font_1_4" transform="matrix(6.9738,0,0,-6.9738,165.689,165.14099)" fill="#0000ff"/>
<use data-text="4" xlink:href="#font_1_3" transform="matrix(6.9738,0,0,-6.9738,169.66407,165.14099)" fill="#0000ff"/>
<use data-text="1" xlink:href="#font_1_1" transform="matrix(6.9738,0,0,-6.9738,165.68901,91.190998)" fill="#0000ff"/>
<path transform="matrix(1,0,0,-1,161.71802,92.623)" stroke-width=".398" stroke-linecap="butt" stroke-miterlimit="10" stroke-linejoin="miter" fill="none" stroke="#0000ff" d="M0 0H11.914"/>
<use data-text="2" xlink:href="#font_1_2" transform="matrix(6.9738,0,0,-6.9738,161.71802,98.548999)" fill="#0000ff"/>
<use data-text="1" xlink:href="#font_1_1" transform="matrix(6.9738,0,0,-6.9738,165.69309,98.548999)" fill="#0000ff"/>
<use data-text="6" xlink:href="#font_1_5" transform="matrix(6.9738,0,0,-6.9738,169.66815,98.548999)" fill="#0000ff"/>
<use data-text="0" xlink:href="#font_2_1" transform="matrix(7.9701,0,0,-7.9701,144.654,113.14)" fill="#ff0000"/>
<use data-text="1" xlink:href="#font_2_2" transform="matrix(7.9701,0,0,-7.9701,120.495,134.131)" fill="#ff0000"/>
<use data-text="2" xlink:href="#font_2_3" transform="matrix(7.9701,0,0,-7.9701,180.087,92.149)" fill="#ff0000"/>
<use data-text="3" xlink:href="#font_2_4" transform="matrix(7.9701,0,0,-7.9701,217.3,125.258998)" fill="#ff0000"/>
<use data-text="4" xlink:href="#font_2_5" transform="matrix(7.9701,0,0,-7.9701,83.282009,101.021999)" fill="#ff0000"/>
<use data-text="5" xlink:href="#font_2_6" transform="matrix(7.9701,0,0,-7.9701,155.92801,46.548006)" fill="#ff0000"/>
<use data-text="6" xlink:href="#font_2_7" transform="matrix(7.9701,0,0,-7.9701,144.654,179.733)" fill="#ff0000"/>
<use data-text="7" xlink:href="#font_2_8" transform="matrix(7.9701,0,0,-7.9701,181.867,146.25)" fill="#ff0000"/>
<use data-text="8" xlink:href="#font_2_9" transform="matrix(7.9701,0,0,-7.9701,241.45902,104.268)" fill="#ff0000"/>
<use data-text="9" xlink:href="#font_2_10" transform="matrix(7.9701,0,0,-7.9701,59.123,122.013)" fill="#ff0000"/>
<use data-text="1" xlink:href="#font_2_2" transform="matrix(7.9701,0,0,-7.9701,114.481,80.03099)" fill="#ff0000"/>
<use data-text="0" xlink:href="#font_2_1" transform="matrix(7.9701,0,0,-7.9701,118.71313,80.03099)" fill="#ff0000"/>
<use data-text="1" xlink:href="#font_2_2" transform="matrix(7.9701,0,0,-7.9701,120.495,67.537998)" fill="#ff0000"/>
<use data-text="1" xlink:href="#font_2_2" transform="matrix(7.9701,0,0,-7.9701,124.72713,67.537998)" fill="#ff0000"/>
<use data-text="1" xlink:href="#font_2_2" transform="matrix(7.9701,0,0,-7.9701,175.853,25.556992)" fill="#ff0000"/>
<use data-text="2" xlink:href="#font_2_3" transform="matrix(7.9701,0,0,-7.9701,180.08512,25.556992)" fill="#ff0000"/>
<use data-text="1" xlink:href="#font_2_2" transform="matrix(7.9701,0,0,-7.9701,120.495,200.724)" fill="#ff0000"/>
<use data-text="3" xlink:href="#font_2_4" transform="matrix(7.9701,0,0,-7.9701,124.72713,200.724)" fill="#ff0000"/>
<use data-text="1" xlink:href="#font_2_2" transform="matrix(7.9701,0,0,-7.9701,175.853,158.742)" fill="#ff0000"/>
<use data-text="4" xlink:href="#font_2_5" transform="matrix(7.9701,0,0,-7.9701,180.08512,158.742)" fill="#ff0000"/>
<use data-text="1" xlink:href="#font_2_2" transform="matrix(7.9701,0,0,-7.9701,217.3,58.666)" fill="#ff0000"/>
<use data-text="5" xlink:href="#font_2_6" transform="matrix(7.9701,0,0,-7.9701,221.53212,58.666)" fill="#ff0000"/>
<use data-text="1" xlink:href="#font_2_2" transform="matrix(7.9701,0,0,-7.9701,79.048007,34.429)" fill="#ff0000"/>
<use data-text="6" xlink:href="#font_2_7" transform="matrix(7.9701,0,0,-7.9701,83.28013,34.429)" fill="#ff0000"/>
<use data-text="1" xlink:href="#font_2_2" transform="matrix(7.9701,0,0,-7.9701,217.3,191.851)" fill="#ff0000"/>
<use data-text="7" xlink:href="#font_2_8" transform="matrix(7.9701,0,0,-7.9701,221.53212,191.851)" fill="#ff0000"/>
<use data-text="1" xlink:href="#font_2_2" transform="matrix(7.9701,0,0,-7.9701,79.048007,167.614)" fill="#ff0000"/>
<use data-text="8" xlink:href="#font_2_9" transform="matrix(7.9701,0,0,-7.9701,83.28013,167.614)" fill="#ff0000"/>
<use data-text="1" xlink:href="#font_2_2" transform="matrix(7.9701,0,0,-7.9701,181.867,79.657)" fill="#ff0000"/>
<use data-text="9" xlink:href="#font_2_10" transform="matrix(7.9701,0,0,-7.9701,186.09912,79.657)" fill="#ff0000"/>
<use data-text="2" xlink:href="#font_2_3" transform="matrix(7.9701,0,0,-7.9701,237.225,37.675004)" fill="#ff0000"/>
<use data-text="0" xlink:href="#font_2_1" transform="matrix(7.9701,0,0,-7.9701,241.45713,37.675004)" fill="#ff0000"/>
<use data-text="2" xlink:href="#font_2_3" transform="matrix(7.9701,0,0,-7.9701,59.123,55.42)" fill="#ff0000"/>
<use data-text="1" xlink:href="#font_2_2" transform="matrix(7.9701,0,0,-7.9701,63.355127,55.42)" fill="#ff0000"/>
<use data-text="2" xlink:href="#font_2_3" transform="matrix(7.9701,0,0,-7.9701,114.481,13.438004)" fill="#ff0000"/>
<use data-text="2" xlink:href="#font_2_3" transform="matrix(7.9701,0,0,-7.9701,118.71313,13.438004)" fill="#ff0000"/>
<use data-text="2" xlink:href="#font_2_3" transform="matrix(7.9701,0,0,-7.9701,181.867,212.842)" fill="#ff0000"/>
<use data-text="3" xlink:href="#font_2_4" transform="matrix(7.9701,0,0,-7.9701,186.09912,212.842)" fill="#ff0000"/>
<use data-text="2" xlink:href="#font_2_3" transform="matrix(7.9701,0,0,-7.9701,237.225,170.861)" fill="#ff0000"/>
<use data-text="4" xlink:href="#font_2_5" transform="matrix(7.9701,0,0,-7.9701,241.45713,170.861)" fill="#ff0000"/>
<use data-text="2" xlink:href="#font_2_3" transform="matrix(7.9701,0,0,-7.9701,59.123,188.605)" fill="#ff0000"/>
<use data-text="5" xlink:href="#font_2_6" transform="matrix(7.9701,0,0,-7.9701,63.355127,188.605)" fill="#ff0000"/>
<use data-text="2" xlink:href="#font_2_3" transform="matrix(7.9701,0,0,-7.9701,114.481,146.624)" fill="#ff0000"/>
<use data-text="6" xlink:href="#font_2_7" transform="matrix(7.9701,0,0,-7.9701,118.71313,146.624)" fill="#ff0000"/>
<use data-text="D" xlink:href="#font_3_4" transform="matrix(14.3462,0,0,-14.3462,8.302002,95.93)"/>
<use data-text="3" xlink:href="#font_3_2" transform="matrix(14.3462,0,0,-14.3462,19.03296,95.93)"/>
<use data-text="Q" xlink:href="#font_3_5" transform="matrix(14.3462,0,0,-14.3462,26.0626,95.93)"/>
<use data-text="2" xlink:href="#font_3_1" transform="matrix(14.3462,0,0,-14.3462,36.9944,95.93)"/>
<use data-text="7" xlink:href="#font_3_3" transform="matrix(14.3462,0,0,-14.3462,44.02404,95.93)"/>
</svg>
